<?xml version="1.0" standalone="no"?>
<!DOCTYPE svg PUBLIC "-//W3C//DTD SVG 20010904//EN"
 "http://www.w3.org/TR/2001/REC-SVG-20010904/DTD/svg10.dtd">
<svg version="1.0" xmlns="http://www.w3.org/2000/svg"
 width="350.780682pt" height="156.865112pt" viewBox="0 0 350.780682 156.865112"
 preserveAspectRatio="xMidYMid meet">
<metadata>
Created by potrace 1.12, written by Peter Selinger 2001-2015
</metadata>
<g transform="translate(-87.841407,326.417009) scale(0.100000,-0.100000)"
fill="#ffffff" stroke="none">
<path d="M4343 3260 c-43 -10 -94 -41 -162 -99 l-56 -48 -154 19 c-103 13
-162 16 -180 10 l-26 -10 26 -10 c14 -5 70 -31 125 -57 l99 -47 -55 -50 c-55
-50 -55 -50 -111 -45 -76 7 -90 -5 -37 -28 42 -19 91 -60 94 -80 0 -5 2 -16 2
-22 4 -28 22 -11 33 30 9 34 23 51 72 90 34 26 63 44 64 40 1 -4 18 -61 39
-127 33 -105 39 -117 51 -100 9 13 13 59 13 169 l0 151 52 39 c98 75 174 166
150 178 -4 2 -21 1 -39 -3z"/>
<path d="M921 3123 c23 -43 53 -95 66 -116 13 -21 33 -55 44 -75 12 -19 116
-200 233 -401 117 -201 250 -432 297 -513 46 -82 89 -148 95 -148 20 0 226 66
321 103 51 20 146 63 211 96 l118 61 74 142 c71 138 94 183 203 388 92 175
109 205 116 213 10 10 33 -29 156 -268 54 -104 101 -194 106 -199 4 -5 22 0
41 11 18 11 83 46 143 78 130 67 144 78 129 103 -6 9 -26 44 -44 77 -18 33
-40 74 -50 90 -10 17 -31 55 -47 85 -101 190 -169 301 -192 317 -23 16 -51 18
-238 18 -199 0 -213 -1 -240 -21 -26 -20 -71 -96 -250 -429 -42 -77 -88 -162
-103 -190 -15 -27 -45 -84 -68 -125 -22 -41 -58 -108 -80 -148 -22 -41 -42
-70 -45 -65 -3 4 -35 67 -72 138 -37 72 -91 175 -120 230 -51 97 -158 302
-268 515 l-55 105 -262 3 -262 2 43 -77z"/>
<path d="M3784 2795 c-57 -37 -443 -268 -514 -307 -25 -14 -102 -57 -172 -96
-147 -83 -557 -290 -704 -356 -198 -88 -379 -161 -504 -203 -123 -41 -142 -47
-275 -77 l-100 -23 60 -7 c33 -4 85 -12 115 -19 83 -16 335 -15 390 2 113 37
559 279 840 458 106 67 116 72 128 55 14 -19 81 -142 190 -351 39 -74 82 -143
95 -153 23 -17 45 -18 225 -16 l200 3 -49 89 c-27 49 -75 137 -106 195 -31 58
-59 111 -63 116 -17 24 -180 334 -180 343 0 6 35 35 79 65 43 31 127 93 186
139 59 46 119 92 134 102 45 34 92 76 84 75 -4 0 -31 -15 -59 -34z"/>
</g>
</svg>
